<svg xmlns="http://www.w3.org/2000/svg" width="1624.787" height="1217.811"><defs/><g data-name="Grupo 1259" opacity=".325" style="mix-blend-mode:difference;isolation:isolate"><g data-name="Grupo 895"><g data-name="Grupo 898"><g data-name="Grupo 333" opacity=".54"><g data-name="Grupo 331"><g data-name="Grupo 264"><path fill="gray" d="M1240.994 628.529l78.8 36.029-.125.278-78.8-36.043z" data-name="Trazado 238"/></g><g data-name="Grupo 265"><path fill="gray" d="M1316.617 491.117l.292-.014 2.974 173.591h-.3z" data-name="Trazado 239"/></g><g data-name="Grupo 266"><path fill="gray" d="M1316.638 491.034l.249.152-75.832 137.534-.256-.139z" data-name="Trazado 240"/></g><g data-name="Grupo 267"><path fill="gray" d="M1316.874 491.02l70.334 83.995-.229.181-70.337-84z" data-name="Trazado 241"/></g><g data-name="Grupo 268"><path fill="gray" d="M1353.007 363.961l.285.07-36.391 127.114-.285-.07z" data-name="Trazado 242"/></g><g data-name="Grupo 269"><path fill="gray" d="M1414.967 414.305l.181.236-98.286 76.687-.188-.236z" data-name="Trazado 243"/></g><g data-name="Grupo 271"><path fill="gray" d="M1353.244 363.884l61.91 50.438-.188.222-61.9-50.425z" data-name="Trazado 245"/></g><g data-name="Grupo 272"><path fill="gray" d="M1353.154 363.852l153.338 2.07-.007.292-153.339-2.071z" data-name="Trazado 246"/></g><g data-name="Grupo 273"><path fill="gray" d="M1414.978 414.283l91.433004-48.302277.134963.255476-91.433004 48.302277z" data-name="Rectángulo 40"/></g><g data-name="Grupo 274"><path fill="gray" d="M1415.16 414.32l73.428 73.8-.208.209-73.429-73.8z" data-name="Trazado 247"/></g><g data-name="Grupo 275"><path fill="gray" d="M1415.188 414.375l45.645 132.225-.263.1-45.653-132.228z" data-name="Trazado 248"/></g><g data-name="Grupo 276"><path fill="gray" d="M1414.91 414.403l.285.056-27.964 160.681-.277-.056z" data-name="Trazado 249"/></g><g data-name="Grupo 277"><path fill="gray" d="M1316.82 490.978l143.938 55.538-.111.265-143.933-55.525z" data-name="Trazado 250"/></g><g data-name="Grupo 278"><path fill="gray" d="M1316.762 490.964l171.722-2.89v.292l-171.722 2.89z" data-name="Trazado 251"/></g><g data-name="Grupo 279"><path fill="gray" d="M1488.352 488.158l.265.125-27.729 59.791-.263-.125z" data-name="Trazado 252"/></g><g data-name="Grupo 280"><path fill="gray" d="M1319.868 664.639l46.187 110.1-.27.125-46.187-110.114z" data-name="Trazado 253"/></g><g data-name="Grupo 281"><path fill="gray" d="M1464.412 637.061l.063.292-144.717 27.479-.056-.278z" data-name="Trazado 254"/></g><g data-name="Grupo 282"><path fill="gray" d="M1386.974 575.015l.237.181-67.364 89.584-.236-.167z" data-name="Trazado 255"/></g><g data-name="Grupo 283"><path fill="gray" d="M1387.184 574.988l77.353 62.11-.188.209-77.346-62.083z" data-name="Trazado 256"/></g><g data-name="Grupo 284"><path fill="gray" d="M1460.653 546.516l.105.265-73.61 28.457-.1-.265z" data-name="Trazado 257"/></g><g data-name="Grupo 285"><path fill="gray" d="M1387.106 574.959l136.873 10.283-.02.292-136.874-10.283z" data-name="Trazado 258"/></g><g data-name="Grupo 286"><path fill="gray" d="M1460.778 546.516l63.264 38.755-.152.236-63.271-38.74z" data-name="Trazado 259"/></g><g data-name="Grupo 287"><path fill="gray" d="M1460.555 546.656l.292-.014 3.744 90.559-.292.013z" data-name="Trazado 260"/></g><g data-name="Grupo 289"><path fill="gray" d="M1464.301 637.209h.292l-1.1 75.117h-.292z" data-name="Trazado 262"/></g><g data-name="Grupo 290"><path fill="gray" d="M1464.327 637.126l.236.167-98.522 137.6-.236-.18z" data-name="Trazado 263"/></g><g data-name="Grupo 291"><path fill="gray" d="M1463.264 712.2l.154.25-97.411 62.473-.159-.236z" data-name="Trazado 264"/></g><g data-name="Grupo 292"><path fill="gray" d="M1463.181 712.22l54.201698-81.498221.250733.166754-54.201698 81.498221z" data-name="Rectángulo 41"/></g><g data-name="Grupo 293"><path fill="gray" d="M1463.466 712.243l52.439 82.091-.249.154-52.441-82.093z" data-name="Trazado 265"/></g><g data-name="Grupo 294"><path fill="gray" d="M1517.413 630.665l.041.292-53 6.392-.034-.292z" data-name="Trazado 266"/></g><g data-name="Grupo 295"><path fill="gray" d="M1517.261 630.786l6.562413-45.43209.29205.042185-6.562413 45.43209z" data-name="Rectángulo 42"/></g><g data-name="Grupo 296"><path fill="gray" d="M1582.02 566.915l.084.278-58.088 18.342-.091-.292z" data-name="Trazado 267"/></g><g data-name="Grupo 297"><path fill="gray" d="M1524.103 585.339l28.568 85.718-.27.084-28.575-85.7z" data-name="Trazado 268"/></g><g data-name="Grupo 298"><path fill="gray" d="M1517.573 630.79l21.947 123.9-.285.07-21.947-123.925z" data-name="Trazado 269"/></g><g data-name="Grupo 299"><path fill="gray" d="M1517.32 630.901l.22091841-.19246832 35.1041203 40.29310533-.2209184.19246833z" data-name="Rectángulo 43"/></g><g data-name="Grupo 300"><path fill="gray" d="M1517.565 630.735l97.369 174.772-.264.125-97.367-174.749z" data-name="Trazado 270"/></g><g data-name="Grupo 301"><path fill="gray" d="M1539.257 754.649l.249.154-23.6 39.7-.249-.152z" data-name="Trazado 271"/></g><g data-name="Grupo 302"><path fill="gray" d="M1539.465 754.608l75.416 50.843-.167.236-75.415-50.842z" data-name="Trazado 272"/></g><g data-name="Grupo 303"><path fill="gray" d="M1561.475 687.107l.277.082-22.232 67.586-.277-.1z" data-name="Trazado 273"/></g><g data-name="Grupo 304"><path fill="gray" d="M1552.665 671.03l9.074 16.049-.249.139-9.081-16.048z" data-name="Trazado 274"/></g><g data-name="Grupo 305"><path fill="gray" d="M1561.634 686.996l44.276 5.016-.027.292-44.283-5.014z" data-name="Trazado 275"/></g><g data-name="Grupo 306"><path fill="gray" d="M1561.745 687.093l53.184 118.414-.263.125-53.184-118.428z" data-name="Trazado 276"/></g><g data-name="Grupo 307"><path fill="gray" d="M1610.281 598.123l.292.013-4.524 94.027-.292-.013z" data-name="Trazado 277"/></g><g data-name="Grupo 308"><path fill="gray" d="M1606.05 692.151l8.893 113.411-.291.013-8.9-113.411z" data-name="Trazado 278"/></g><g data-name="Grupo 309"><path fill="gray" d="M1582.205 567.025l23.844 125.1-.291.07-23.837-125.115z" data-name="Trazado 279"/></g><g data-name="Grupo 310"><path fill="gray" d="M1582.174 566.956l28.366 31.084-.215.2-28.367-31.084z" data-name="Trazado 280"/></g><g data-name="Grupo 311"><path fill="gray" d="M1620.438 505.609l.285.041-10.149 92.5-.286-.027z" data-name="Trazado 281"/></g><g data-name="Grupo 312"><path fill="gray" d="M1593.197 381.25l17.376 216.874-.292.027-17.375-216.874z" data-name="Trazado 282"/></g><g data-name="Grupo 313"><path fill="gray" d="M1613.025 326.494l.292-.029 7.406 179.163-.292.014z" data-name="Trazado 283"/></g><g data-name="Grupo 314"><path fill="gray" d="M1566.324 453.226l54.357 52.3-.208.208-54.357-52.284z" data-name="Trazado 284"/></g><g data-name="Grupo 315"><path fill="gray" d="M1553.527 346.484l67.19 159.1-.265.111-67.2-159.1z" data-name="Trazado 285"/></g><g data-name="Grupo 316"><path fill="gray" d="M1613.032 326.42l.277.1-20.119 54.8-.278-.111z" data-name="Trazado 286"/></g><g data-name="Grupo 317"><path fill="gray" d="M1553.486 346.428l39.656 34.723-.188.223-39.656-34.725z" data-name="Trazado 287"/></g><g data-name="Grupo 318"><path fill="gray" d="M1592.915 381.208l.278.111-26.834 72.074-.278-.111z" data-name="Trazado 288"/></g><g data-name="Grupo 319"><path fill="gray" d="M1554.104 400.243l12.255 53.066-.285.069-12.259-53.078z" data-name="Trazado 289"/></g><g data-name="Grupo 320"><path fill="gray" d="M1566.081 453.282l.278.111-20.4 55.386-.271-.1z" data-name="Trazado 290"/></g><g data-name="Grupo 321"><path fill="gray" d="M1415.091 414.278l151.164 38.919-.077.279-151.157-38.907z" data-name="Trazado 291"/></g><g data-name="Grupo 322"><path fill="gray" d="M1551.685 346.47l.111.279-45.249 19.466-.118-.277z" data-name="Trazado 292"/></g><g data-name="Grupo 323"><path fill="gray" d="M1506.576 365.951l47.472 34.2-.167.236-47.472-34.2z" data-name="Trazado 293"/></g><g data-name="Grupo 324"><path fill="gray" d="M1506.632 366.034l39.336 142.646-.284.084-39.337-142.661z" data-name="Trazado 294"/></g><g data-name="Grupo 325"><path fill="gray" d="M1592.993 381.124l.125.264-39.087 19.009-.124-.265z" data-name="Trazado 295"/></g><g data-name="Grupo 326"><path fill="gray" d="M1554.265 400.502l58.29740207-76.20021103.23429601.17924949-58.29740207 76.20021103z" data-name="Rectángulo 44"/></g><g data-name="Grupo 327"><path fill="gray" d="M1553.951 400.12l.02.292-138.9 14.159-.027-.292z" data-name="Trazado 296"/></g><g data-name="Grupo 328"><path fill="gray" d="M1545.815 508.584l74.758-3.085.014.292-74.762 3.085z" data-name="Trazado 297"/></g><g data-name="Grupo 329"><path fill="gray" d="M1545.775 504.457l36.418 62.524-.256.139-36.412-62.528z" data-name="Trazado 298"/></g><g data-name="Grupo 330"><path fill="gray" d="M1488.54 488.074l57.331 20.509-.1.277-57.335-20.511z" data-name="Trazado 299"/></g></g><g fill="#333" data-name="Grupo 332"><path d="M1535.188 754.898a4.2 4.2 0 114.368 4.027 4.2 4.2 0 01-4.368-4.027z" data-name="Trazado 300"/><path d="M1459.136 712.498a4.2 4.2 0 114.382 4.027 4.2 4.2 0 01-4.382-4.027z" data-name="Trazado 301"/><path d="M1557.412 687.313a4.208 4.208 0 114.382 4.027 4.187 4.187 0 01-4.382-4.027z" data-name="Trazado 302"/><path d="M1548.334 671.277a4.208 4.208 0 114.368 4.013 4.181 4.181 0 01-4.368-4.013z" data-name="Trazado 303"/><path d="M1519.764 585.565a4.208 4.208 0 114.382 4.026 4.222 4.222 0 01-4.382-4.026z" data-name="Trazado 304"/><path d="M1460.246 637.372a4.2 4.2 0 114.368 4.041 4.22 4.22 0 01-4.368-4.041z" data-name="Trazado 305"/><path d="M1456.504 546.821a4.2 4.2 0 114.368 4.027 4.19 4.19 0 01-4.368-4.027z" data-name="Trazado 306"/><path d="M1513.233 630.982a4.2 4.2 0 114.382 4.027 4.212 4.212 0 01-4.382-4.027z" data-name="Trazado 307"/><path d="M1562.022 453.511a4.2 4.2 0 114.368 4.026 4.2 4.2 0 01-4.368-4.026z" data-name="Trazado 308"/><path d="M1502.291 366.247a4.2 4.2 0 114.368 4.027 4.211 4.211 0 01-4.368-4.027z" data-name="Trazado 309"/><path d="M1410.859 414.596a4.2 4.2 0 114.368 4.027 4.19 4.19 0 01-4.368-4.027z" data-name="Trazado 310"/><path d="M1484.278 488.399a4.208 4.208 0 114.368 4.027 4.221 4.221 0 01-4.368-4.027z" data-name="Trazado 311"/><path d="M1549.188 346.726a4.2 4.2 0 114.368 4.012 4.2 4.2 0 01-4.368-4.012z" data-name="Trazado 312"/><path d="M1577.862 567.225a4.208 4.208 0 114.382 4.026 4.232 4.232 0 01-4.382-4.026z" data-name="Trazado 313"/><path d="M1312.568 491.287a4.2 4.2 0 114.368 4.027 4.212 4.212 0 01-4.368-4.027z" data-name="Trazado 314"/><path d="M1348.95 364.17a4.2 4.2 0 114.368 4.012 4.191 4.191 0 01-4.368-4.012z" data-name="Trazado 315"/><path d="M1315.528 664.861a4.208 4.208 0 114.382 4.026 4.209 4.209 0 01-4.382-4.026z" data-name="Trazado 316"/><path d="M1236.73 628.838a4.2 4.2 0 114.368 4.013 4.211 4.211 0 01-4.368-4.013z" data-name="Trazado 317"/><path d="M1361.713 774.975a4.208 4.208 0 114.383 4.027 4.22 4.22 0 01-4.383-4.027z" data-name="Trazado 318"/><path d="M1382.904 575.277a4.2 4.2 0 114.368 4.027 4.188 4.188 0 01-4.368-4.027z" data-name="Trazado 319"/><path d="M1511.582 794.582a4.2 4.2 0 114.368 4.027 4.19 4.19 0 01-4.368-4.027z" data-name="Trazado 320"/><path d="M1610.599 805.737a4.2 4.2 0 114.368 4.041 4.2 4.2 0 01-4.368-4.041z" data-name="Trazado 321"/><path d="M1601.705 692.336a4.2 4.2 0 114.368 4.026 4.219 4.219 0 01-4.368-4.026z" data-name="Trazado 322"/><path d="M1606.23 598.3a4.2 4.2 0 114.368 4.027 4.209 4.209 0 01-4.368-4.027z" data-name="Trazado 323"/><path d="M1616.371 505.815a4.208 4.208 0 114.382 4.013 4.223 4.223 0 01-4.382-4.013z" data-name="Trazado 324"/><path d="M1541.633 508.902a4.2 4.2 0 114.368 4.012 4.2 4.2 0 01-4.368-4.012z" data-name="Trazado 325"/><path d="M1549.757 400.438a4.208 4.208 0 114.383 4.027 4.2 4.2 0 01-4.383-4.027z" data-name="Trazado 326"/><path d="M1588.857 381.443a4.185 4.185 0 014.027-4.382 4.2006831 4.2006831 0 11.327 8.395 4.185 4.185 0 01-4.354-4.013z" data-name="Trazado 327"/><path d="M1608.976 326.649a4.2 4.2 0 114.368 4.027 4.212 4.212 0 01-4.368-4.027z" data-name="Trazado 328"/></g></g><g data-name="Grupo 403"><g data-name="Grupo 401" opacity=".81"><g data-name="Grupo 334"><path fill="gray" d="M972.425 431.36l74.248 33.947-.118.261-74.246-33.959z" data-name="Trazado 329"/></g><g data-name="Grupo 335"><path fill="gray" d="M1043.675 301.9l.275-.013 2.8 163.537-.275.013z" data-name="Trazado 330"/></g><g data-name="Grupo 336"><path fill="gray" d="M1043.695 301.821l.241.145-71.453 129.577-.234-.131z" data-name="Trazado 331"/></g><g data-name="Grupo 337"><path fill="gray" d="M1043.923 301.809l66.262 79.137-.209.17-66.262-79.137z" data-name="Trazado 332"/></g><g data-name="Grupo 338"><path fill="gray" d="M1077.96 182.102l.268.066-34.279 119.759-.261-.079z" data-name="Trazado 333"/></g><g data-name="Grupo 339"><path fill="gray" d="M1136.342 229.532l.17.223-92.608 72.25-.17-.223z" data-name="Trazado 334"/></g><g data-name="Grupo 341"><path fill="gray" d="M1078.19 182.023l58.322 47.526-.17.21-58.329-47.527z" data-name="Trazado 336"/></g><g data-name="Grupo 342"><path fill="gray" d="M1078.099 181.984l144.468 1.964v.275l-144.468-1.951z" data-name="Trazado 337"/></g><g data-name="Grupo 343"><path fill="gray" d="M1136.376 229.547l86.142264-45.604728.131508.248404-86.142264 45.604728z" data-name="Rectángulo 45"/></g><g data-name="Grupo 344"><path fill="gray" d="M1136.523 229.544l69.18 69.529-.19.2-69.19-69.532z" data-name="Trazado 338"/></g><g data-name="Grupo 345"><path fill="gray" d="M1136.551 229.597l43 124.577-.255.093-43-124.578z" data-name="Trazado 339"/></g><g data-name="Grupo 346"><path fill="gray" d="M1136.29 229.623l.268.039-26.341 151.388-.27-.039z" data-name="Trazado 340"/></g><g data-name="Grupo 347"><path fill="gray" d="M1043.864 301.769l135.614 52.327-.1.248-135.612-52.326z" data-name="Trazado 341"/></g><g data-name="Grupo 348"><path fill="gray" d="M1043.813 301.757l161.79-2.724.007.275-161.792 2.722z" data-name="Trazado 342"/></g><g data-name="Grupo 349"><path fill="gray" d="M1205.476 299.112l.256.118-26.131 56.332-.241-.118z" data-name="Trazado 343"/></g><g data-name="Grupo 350"><path fill="gray" d="M1046.737 465.385l43.522 103.736-.256.1-43.518-103.732z" data-name="Trazado 344"/></g><g data-name="Grupo 351"><path fill="gray" d="M1182.935 439.398l.045.275-136.339 25.9-.052-.261z" data-name="Trazado 345"/></g><g data-name="Grupo 352"><path fill="gray" d="M1109.969 380.946l.229.17-63.48 84.4-.216-.17z" data-name="Trazado 346"/></g><g data-name="Grupo 353"><path fill="gray" d="M1110.161 380.919l72.874 58.506-.17.223-72.873-58.506z" data-name="Trazado 347"/></g><g data-name="Grupo 354"><path fill="gray" d="M1179.379 354.096l.1.248-69.352 26.811-.1-.248z" data-name="Trazado 348"/></g><g data-name="Grupo 355"><path fill="gray" d="M1110.087 380.894l128.963 9.691-.025.275-128.95-9.687z" data-name="Trazado 349"/></g><g data-name="Grupo 356"><path fill="gray" d="M1179.503 354.108l59.6 36.485-.143.236-59.605-36.5z" data-name="Trazado 350"/></g><g data-name="Grupo 357"><path fill="gray" d="M1179.284 354.227l.275-.014 3.535 85.317-.281.013z" data-name="Trazado 351"/></g><g data-name="Grupo 359"><path fill="gray" d="M1182.816 439.543h.275l-1.035 70.772-.275-.014z" data-name="Trazado 353"/></g><g data-name="Grupo 360"><path fill="gray" d="M1182.841 439.464l.229.157-92.823 129.631-.229-.158z" data-name="Trazado 354"/></g><g data-name="Grupo 361"><path fill="gray" d="M1090.079 569.097l91.700958-58.88052.1485.231275-91.700958 58.88052z" data-name="Rectángulo 46"/></g><g data-name="Grupo 362"><path fill="gray" d="M1232.759 433.429l.235.157-50.964 76.795-.229-.145z" data-name="Trazado 355"/></g><g data-name="Grupo 363"><path fill="gray" d="M1182.03 510.236l49.413 77.342-.236.145-49.413-77.345z" data-name="Trazado 356"/></g><g data-name="Grupo 364"><path fill="gray" d="M1232.864 433.377l.032.275-49.923 6.022-.032-.275z" data-name="Trazado 357"/></g><g data-name="Grupo 365"><path fill="gray" d="M1238.899 390.699l.275.04-6.16 42.794-.275-.052z" data-name="Trazado 358"/></g><g data-name="Grupo 366"><path fill="gray" d="M1293.725 373.301l.086.261-54.735 17.281-.079-.262z" data-name="Trazado 359"/></g><g data-name="Grupo 367"><path fill="gray" d="M1239.168 390.673l26.915 80.76-.261.078-26.916-80.747z" data-name="Trazado 360"/></g><g data-name="Grupo 368"><path fill="gray" d="M1233.014 433.494l20.685 116.748-.275.039-20.684-116.748z" data-name="Trazado 361"/></g><g data-name="Grupo 369"><path fill="gray" d="M1232.775 433.599l.208858-.181989 33.07995 37.9639-.208858.181989z" data-name="Rectángulo 47"/></g><g data-name="Grupo 370"><path fill="gray" d="M1233.001 433.442l91.731 164.649-.243.131-91.729-164.649z" data-name="Trazado 362"/></g><g data-name="Grupo 371"><path fill="gray" d="M1253.443 550.191l.236.144-22.236 37.389-.241-.131z" data-name="Trazado 363"/></g><g data-name="Grupo 372"><path fill="gray" d="M1253.644 550.152l71.053 47.9-.152.222-71.059-47.9z" data-name="Trazado 364"/></g><g data-name="Grupo 373"><path fill="gray" d="M1274.371 486.553l.268.079-20.943 63.677-.261-.092z" data-name="Trazado 365"/></g><g data-name="Grupo 374"><path fill="gray" d="M1266.079 471.394l8.549 15.12-.243.144-8.542-15.12z" data-name="Trazado 366"/></g><g data-name="Grupo 375"><path fill="gray" d="M1274.52 486.449l41.722 4.726-.025.276-41.729-4.727z" data-name="Trazado 367"/></g><g data-name="Grupo 376"><path fill="gray" d="M1274.631 486.528l50.107 111.577-.255.118-50.099-111.577z" data-name="Trazado 368"/></g><g data-name="Grupo 377"><path fill="gray" d="M1316.065 491.304l4.32176091-88.5866426.27467333.01340013-4.32176091 88.5866426z" data-name="Rectángulo 48"/></g><g data-name="Grupo 378"><path fill="gray" d="M1316.367 491.292l8.385 106.865-.275.013-8.385-106.851z" data-name="Trazado 369"/></g><g data-name="Grupo 379"><path fill="gray" d="M1293.907 373.406l22.458 117.874-.268.065-22.456-117.89z" data-name="Trazado 370"/></g><g data-name="Grupo 380"><path fill="gray" d="M1293.875 373.34l26.72 29.286-.2.2-26.727-29.3z" data-name="Trazado 371"/></g><g data-name="Grupo 381"><path fill="gray" d="M1329.922 315.555l.275.039-9.566 87.149-.275-.04z" data-name="Trazado 372"/></g><g data-name="Grupo 382"><path fill="gray" d="M1304.258 198.387l16.376 204.316-.275.027-16.376-204.33z" data-name="Trazado 373"/></g><g data-name="Grupo 383"><path fill="gray" d="M1322.945 146.782l.275-.013 6.977 168.8-.275.013z" data-name="Trazado 374"/></g><g data-name="Grupo 384"><path fill="gray" d="M1278.939 266.2l51.22 49.276-.2.2-51.213-49.262z" data-name="Trazado 375"/></g><g data-name="Grupo 385"><path fill="gray" d="M1266.882 165.62l63.3 149.9-.248.118-63.31-149.9z" data-name="Trazado 376"/></g><g data-name="Grupo 386"><path fill="gray" d="M1322.951 146.729l.255.091-18.948 51.62-.263-.091z" data-name="Trazado 377"/></g><g data-name="Grupo 387"><path fill="gray" d="M1266.844 165.581l37.362 32.715-.175.209-37.369-32.715z" data-name="Trazado 378"/></g><g data-name="Grupo 388"><path fill="gray" d="M1303.995 198.348l.256.091-25.28 67.917-.261-.1z" data-name="Trazado 379"/></g><g data-name="Grupo 389"><path fill="gray" d="M1267.432 216.27l11.546 50-.268.079-11.553-50.009z" data-name="Trazado 380"/></g><g data-name="Grupo 390"><path fill="gray" d="M1278.71 266.253l.268.092-19.218 52.194-.261-.091z" data-name="Trazado 381"/></g><g data-name="Grupo 391"><path fill="gray" d="M1136.459 229.505l142.42 36.67-.072.261-142.424-36.656z" data-name="Trazado 382"/></g><g data-name="Grupo 392"><path fill="gray" d="M1265.154 165.62l.1.261-42.628 18.328-.111-.248z" data-name="Trazado 383"/></g><g data-name="Grupo 393"><path fill="gray" d="M1222.647 183.974l44.726 32.218-.157.222-44.726-32.218z" data-name="Trazado 384"/></g><g data-name="Grupo 394"><path fill="gray" d="M1222.698 184.053l37.061 134.4-.261.078-37.062-134.413z" data-name="Trazado 385"/></g><g data-name="Grupo 395"><path fill="gray" d="M1304.061 198.269l.118.249-36.826 17.908-.118-.248z" data-name="Trazado 386"/></g><g data-name="Grupo 396"><path fill="gray" d="M1322.906 145.04l.216.17-55.717 71.178-.223-.17z" data-name="Trazado 387"/></g><g data-name="Grupo 397"><path fill="gray" d="M1267.281 216.166l.032.275-130.874 13.34-.025-.275z" data-name="Trazado 388"/></g><g data-name="Grupo 398"><path fill="gray" d="M1259.626 318.343l70.431-2.906.013.275-70.433 2.906z" data-name="Trazado 389"/></g><g data-name="Grupo 399"><path fill="gray" d="M1259.583 314.455l34.306 58.912-.236.143-34.3-58.91z" data-name="Trazado 390"/></g><g data-name="Grupo 400"><path fill="gray" d="M1205.654 299.03l54.021 19.323-.092.263-54.02-19.323z" data-name="Trazado 391"/></g></g></g><g data-name="Grupo 683" opacity=".71"><g data-name="Grupo 681"><g data-name="Grupo 614"><path fill="gray" d="M1010.138 783.187l17.909 89.89-.3.066-17.908-89.9z" data-name="Trazado 685"/></g><g data-name="Grupo 615"><path fill="gray" d="M1174.802 762.931l.185.246-146.995 110.059-.192-.254z" data-name="Trazado 686"/></g><g data-name="Grupo 616"><path fill="gray" d="M1174.876 762.898l.037.307-164.911 20.165-.033-.307z" data-name="Trazado 687"/></g><g data-name="Grupo 617"><path fill="gray" d="M1175.044 763.09l-28.458 112.333-.3-.082 28.455-112.324z" data-name="Trazado 688"/></g><g data-name="Grupo 618"><path fill="gray" d="M1174.829 762.872l131.54989962-47.46205231.10690416.29630474-131.54989962 47.46205231z" data-name="Rectángulo 73"/></g><g data-name="Grupo 619"><path fill="gray" d="M1301.569 799.684l-.082.3-126.636-36.784.086-.3z" data-name="Trazado 689"/></g><g data-name="Grupo 621"><path fill="gray" d="M1306.576 715.531l-4.892 84.314-.316-.017 4.9-84.313z" data-name="Trazado 691"/></g><g data-name="Grupo 622"><path fill="gray" d="M1306.552 715.429l93.192 132.773-.254.172-93.2-132.766z" data-name="Trazado 692"/></g><g data-name="Grupo 623"><path fill="gray" d="M1399.687 848.145l-.139.278-98.092-48.447.139-.279z" data-name="Trazado 693"/></g><g data-name="Grupo 624"><path fill="gray" d="M1283.576 908.478l17.80210613-108.66341409.30296124.04963353-17.80210613 108.66341408z" data-name="Rectángulo 74"/></g><g data-name="Grupo 625"><path fill="gray" d="M1301.653 799.923l-85.1 121.035-.254-.18 85.1-121.031z" data-name="Trazado 694"/></g><g data-name="Grupo 626"><path fill="gray" d="M1301.455 799.697l.144.279-155.1 75.546-.135-.279z" data-name="Trazado 695"/></g><g data-name="Grupo 627"><path fill="gray" d="M1175.04 763.017l41.532 157.81-.3.082-41.531-157.815z" data-name="Trazado 696"/></g><g data-name="Grupo 628"><path fill="gray" d="M1175.02 762.955l108.837 145.459-.25.18-108.837-145.45z" data-name="Trazado 697"/></g><g data-name="Grupo 629"><path fill="gray" d="M1283.702 908.347l.061.312-68.449 13.258-.053-.3z" data-name="Trazado 698"/></g><g data-name="Grupo 630"><path fill="gray" d="M1028.025 873.186l-65.8 107.81-.27-.155 65.807-107.81z" data-name="Trazado 699"/></g><g data-name="Grupo 631"><path fill="gray" d="M1141.199 980.054l-.209.222-113.198-107.057.213-.221z" data-name="Trazado 700"/></g><g data-name="Grupo 632"><path fill="gray" d="M1146.439 875.235l-.008.3-118.541-2.279.008-.3z" data-name="Trazado 701"/></g><g data-name="Grupo 633"><path fill="gray" d="M1140.94 980.157l5.337371-104.78215113.30760119.01566853-5.337371 104.78215112z" data-name="Rectángulo 75"/></g><g data-name="Grupo 634"><path fill="gray" d="M1216.507 920.745l-.168.254-69.99-45.486.172-.262z" data-name="Trazado 702"/></g><g data-name="Grupo 635"><path fill="gray" d="M1146.565 875.301l75.959 123.732-.263.164-75.958-123.733z" data-name="Trazado 703"/></g><g data-name="Grupo 636"><path fill="gray" d="M1216.576 920.86l5.978 78.237-.315.033-5.965-78.254z" data-name="Trazado 704"/></g><g data-name="Grupo 637"><path fill="gray" d="M1216.326 920.748l.193.246-75.333 59.3-.184-.246z" data-name="Trazado 705"/></g><g data-name="Grupo 639"><path fill="gray" d="M1141.006 980.038l.176.254-65.09 45.583-.176-.254z" data-name="Trazado 707"/></g><g data-name="Grupo 640"><path fill="gray" d="M1141.095 980.014v.311l-179 .745v-.311z" data-name="Trazado 708"/></g><g data-name="Grupo 641"><path fill="gray" d="M1076.063 1025.606l-.115.286-113.91-44.829.107-.287z" data-name="Trazado 709"/></g><g data-name="Grupo 642"><path fill="gray" d="M1075.994 1025.482l103.371525-3.93205.011856.311688-103.371525 3.93205z" data-name="Rectángulo 76"/></g><g data-name="Grupo 643"><path fill="gray" d="M1076.145 1025.802l-37.906 95.814-.287-.114 37.907-95.818z" data-name="Trazado 710"/></g><g data-name="Grupo 644"><path fill="gray" d="M1179.514 1021.533l-.229.213-38.3-41.471.226-.213z" data-name="Trazado 711"/></g><g data-name="Grupo 645"><path fill="gray" d="M1222.325 998.974l.144.278-43 22.526-.147-.278z" data-name="Trazado 712"/></g><g data-name="Grupo 646"><path fill="gray" d="M1274.192 1037.437l-.184.254-51.709-38.455.189-.246z" data-name="Trazado 713"/></g><g data-name="Grupo 647"><path fill="gray" d="M1222.517 999.204l-55.8 77.582-.246-.18 55.8-77.582z" data-name="Trazado 714"/></g><g data-name="Grupo 648"><path fill="gray" d="M1179.51 1021.747l-92.659 95.578-.222-.213 92.66-95.576z" data-name="Trazado 715"/></g><g data-name="Grupo 649"><path fill="gray" d="M1179.551 1021.673l-12.808 55.056-.3-.065 12.808-55.056z" data-name="Trazado 716"/></g><g data-name="Grupo 650"><path fill="gray" d="M1179.542 1021.705l-89.544 191.726-.279-.131 89.537-191.726z" data-name="Trazado 717"/></g><g data-name="Grupo 651"><path fill="gray" d="M1086.728 1117.06l.024.311-48.64 4.343-.037-.312z" data-name="Trazado 718"/></g><g data-name="Grupo 652"><path fill="gray" d="M1086.896 1117.216l3.118 96.142-.316.017-3.113-96.159z" data-name="Trazado 719"/></g><g data-name="Grupo 653"><path fill="gray" d="M1158.41 1094.264l.094.3-71.715 22.8-.1-.3z" data-name="Trazado 720"/></g><g data-name="Grupo 654"><path fill="gray" d="M1166.74 1076.76l-8.142 17.724-.279-.131 8.137-17.724z" data-name="Trazado 721"/></g><g data-name="Grupo 655"><path fill="gray" d="M1158.594 1094.338l23.128 41.077-.266.155-23.136-41.077z" data-name="Trazado 722"/></g><g data-name="Grupo 656"><path fill="gray" d="M1158.592 1094.493l-68.6 118.946-.267-.156 68.6-118.945z" data-name="Trazado 723"/></g><g data-name="Grupo 657"><path fill="gray" d="M1264.934 1081.017l.164.253-83.425 54.36-.168-.262z" data-name="Trazado 724"/></g><g data-name="Grupo 658"><path fill="gray" d="M1181.698 1135.611l-91.741 77.877-.2-.238 91.73-77.868z" data-name="Trazado 725"/></g><g data-name="Grupo 659"><path fill="gray" d="M1274.217 1037.675l-92.512 97.928-.229-.213 92.516-97.928z" data-name="Trazado 726"/></g><g data-name="Grupo 660"><path fill="gray" d="M1274.251 1037.601l-9.083 43.568-.3-.057 9.079-43.585z" data-name="Trazado 727"/></g><g data-name="Grupo 661"><path fill="gray" d="M1350.541 1032.423l.148.262-85.6 48.591-.151-.27z" data-name="Trazado 728"/></g><g data-name="Grupo 662"><path fill="gray" d="M1440.309 932.036l-175.191 149.224-.2-.238 175.19-149.223z" data-name="Trazado 729"/></g><g data-name="Grupo 663"><path fill="gray" d="M1499.548 915.116l.2.237-149.041 117.324-.185-.246z" data-name="Trazado 730"/></g><g data-name="Grupo 664"><path fill="gray" d="M1361.94 953.579l-11.172 79-.311-.041 11.176-79.012z" data-name="Trazado 731"/></g><g data-name="Grupo 665"><path fill="gray" d="M1445.553 876.489l-94.807 156.146-.262-.164 94.8-156.155z" data-name="Trazado 732"/></g><g data-name="Grupo 666"><path fill="gray" d="M1499.605 915.083l.081.3-59.44 16.683-.081-.3z" data-name="Trazado 733"/></g><g data-name="Grupo 667"><path fill="gray" d="M1445.57 876.416l-5.211 55.515-.3-.033 5.207-55.507z" data-name="Trazado 734"/></g><g data-name="Grupo 668"><path fill="gray" d="M1361.745 953.392l78.422665-21.61150923.0823589.29885952-78.42266499 21.61150923z" data-name="Rectángulo 77"/></g><g data-name="Grupo 669"><path fill="gray" d="M1399.818 910.273l-37.915 43.38-.229-.206 37.91-43.38z" data-name="Trazado 735"/></g><g data-name="Grupo 670"><path fill="gray" d="M1361.748 953.399l.086.3-60.124 16.814-.086-.295z" data-name="Trazado 736"/></g><g data-name="Grupo 671"><path fill="gray" d="M1301.679 799.78l60.253 153.72-.286.107-60.267-153.716z" data-name="Trazado 737"/></g><g data-name="Grupo 672"><path fill="gray" d="M1444.418 874.908l-.164.262-44.716-26.747.159-.27z" data-name="Trazado 738"/></g><g data-name="Grupo 673"><path fill="gray" d="M1399.77 848.284l.082 61.882h-.311l-.082-61.874z" data-name="Trazado 739"/></g><g data-name="Grupo 674"><path fill="gray" d="M1301.546 970.274l97.94760979-122.08383635.24101805.19336829-97.94760978 122.08383635z" data-name="Rectángulo 78"/></g><g data-name="Grupo 675"><path fill="gray" d="M1440.281 931.774l-.144.279-40.508-21.748.144-.27z" data-name="Trazado 740"/></g><g data-name="Grupo 676"><path fill="gray" d="M1501.114 913.928l-.013.311-101.407-3.908.013-.311z" data-name="Trazado 741"/></g><g data-name="Grupo 677"><path fill="gray" d="M1301.291 800.049l.22964602-.20524792 98.4157092 110.1145195-.229646.20524792z" data-name="Rectángulo 79"/></g><g data-name="Grupo 678"><path fill="gray" d="M1301.786 970.271l48.952 62.186-.242.2-48.955-62.186z" data-name="Trazado 742"/></g><g data-name="Grupo 679"><path fill="gray" d="M1305.298 967.682l-31.055 69.946-.283-.123 31.055-69.945z" data-name="Trazado 743"/></g><g data-name="Grupo 680"><path fill="gray" d="M1283.883 908.462l17.933 61.858-.3.09-17.929-61.865z" data-name="Trazado 744"/></g></g><g fill="#333" data-name="Grupo 682"><path d="M1083.988 1113.728a4.445 4.445 0 11-.747 6.243 4.43 4.43 0 01.747-6.243z" data-name="Trazado 745"/><path d="M1073.256 1022.252a4.443 4.443 0 11-.747 6.251 4.453 4.453 0 01.747-6.251z" data-name="Trazado 746"/><path d="M1155.704 1090.922a4.448 4.448 0 11-.738 6.243 4.444 4.444 0 01.738-6.243z" data-name="Trazado 747"/><path d="M1163.844 1073.196a4.448 4.448 0 11-.738 6.243 4.451 4.451 0 01.738-6.243z" data-name="Trazado 748"/><path d="M1219.642 995.62a4.448 4.448 0 11-.738 6.243 4.452 4.452 0 01.738-6.243z" data-name="Trazado 749"/><path d="M1138.344 976.671a4.448 4.448 0 11-.747 6.243 4.438 4.438 0 01.747-6.243z" data-name="Trazado 750"/><path d="M1213.676 917.367a4.449 4.449 0 11-.747 6.259 4.456 4.456 0 01.747-6.259z" data-name="Trazado 751"/><path d="M1176.647 1018.148a4.448 4.448 0 11-.738 6.243 4.438 4.438 0 01.738-6.243z" data-name="Trazado 752"/><path d="M1359.038 950.065a4.442 4.442 0 11-.738 6.234 4.429 4.429 0 01.738-6.234z" data-name="Trazado 753"/><path d="M1396.863 844.795a4.448 4.448 0 11-.738 6.243 4.449 4.449 0 01.738-6.243z" data-name="Trazado 754"/><path d="M1298.776 796.347a4.448 4.448 0 11-.738 6.243 4.444 4.444 0 01.738-6.243z" data-name="Trazado 755"/><path d="M1280.979 905.016a4.448 4.448 0 11-.747 6.243 4.443 4.443 0 01.747-6.243z" data-name="Trazado 756"/><path d="M1442.66 872.913a4.445 4.445 0 11-.738 6.243 4.454 4.454 0 01.738-6.243z" data-name="Trazado 757"/><path d="M1271.354 1034.074a4.445 4.445 0 11-.747 6.243 4.445 4.445 0 01.747-6.243z" data-name="Trazado 758"/><path d="M1172.142 759.561a4.446 4.446 0 11-.747 6.243 4.437 4.437 0 01.747-6.243z" data-name="Trazado 759"/><path d="M1303.676 712.027a4.446 4.446 0 11-.747 6.243 4.459 4.459 0 01.747-6.243z" data-name="Trazado 760"/><path d="M1025.152 869.614a4.446 4.446 0 11-.747 6.243 4.428 4.428 0 01.747-6.243z" data-name="Trazado 761"/><path d="M1007.238 779.725a4.446 4.446 0 11-.747 6.243 4.451 4.451 0 01.747-6.243z" data-name="Trazado 762"/><path d="M959.343 977.432a4.445 4.445 0 11-.755 6.243 4.436 4.436 0 01.755-6.243z" data-name="Trazado 763"/><path d="M1143.684 871.889a4.443 4.443 0 11-.747 6.251 4.453 4.453 0 01.747-6.251z" data-name="Trazado 764"/><path d="M1035.338 1118.058a4.448 4.448 0 11-.738 6.243 4.47 4.47 0 01.738-6.243z" data-name="Trazado 765"/><path d="M1087.109 1209.88a4.442 4.442 0 11-.747 6.243 4.431 4.431 0 01.747-6.243z" data-name="Trazado 766"/><path d="M1178.837 1132.003a4.445 4.445 0 11-.738 6.251 4.459 4.459 0 01.738-6.251z" data-name="Trazado 767"/><path d="M1262.267 1077.647a4.448 4.448 0 11-.747 6.243 4.437 4.437 0 01.747-6.243z" data-name="Trazado 768"/><path d="M1347.87 1029.057a4.446 4.446 0 11-.747 6.243 4.445 4.445 0 01.747-6.243z" data-name="Trazado 769"/><path d="M1298.913 966.881a4.442 4.442 0 11-.747 6.243 4.437 4.437 0 01.747-6.243z" data-name="Trazado 770"/><path d="M1396.948 906.677a4.446 4.446 0 11-.747 6.243 4.445 4.445 0 01.747-6.243z" data-name="Trazado 771"/><path d="M1437.458 928.426a4.446 4.446 0 11-.747 6.243 4.445 4.445 0 01.747-6.243z" data-name="Trazado 772"/><path d="M1496.899 911.737a4.448 4.448 0 11-.747 6.251 4.453 4.453 0 01.747-6.251z" data-name="Trazado 773"/></g></g><path fill="#333" d="M968.23 431.3a4.2 4.2 0 114.368 4.027 4.209 4.209 0 01-4.368-4.027z" data-name="Trazado 774"/><path fill="#333" d="M1043.23 465.3a4.2 4.2 0 114.368 4.027 4.209 4.209 0 01-4.368-4.027z" data-name="Trazado 775"/><path fill="#333" d="M1178.23 439.3a4.2 4.2 0 114.368 4.027 4.209 4.209 0 01-4.368-4.027z" data-name="Trazado 776"/><path fill="#333" d="M1106.23 381.3a4.2 4.2 0 114.368 4.027 4.209 4.209 0 01-4.368-4.027z" data-name="Trazado 777"/><path fill="#333" d="M1178.23 510.3a4.2 4.2 0 114.368 4.027 4.209 4.209 0 01-4.368-4.027z" data-name="Trazado 778"/><path fill="#333" d="M1228.23 435.3a4.2 4.2 0 114.368 4.027 4.209 4.209 0 01-4.368-4.027z" data-name="Trazado 779"/><path fill="#333" d="M1235.23 390.3a4.2 4.2 0 114.368 4.027 4.209 4.209 0 01-4.368-4.027z" data-name="Trazado 780"/></g></g><g data-name="Grupo 899"><g data-name="Grupo 898"><g data-name="Grupo 333" opacity=".54"><g data-name="Grupo 331"><g data-name="Grupo 264"><path fill="gray" d="M426.15586028 588.12525452l-86.25730182 8.19797072-.03074682-.30325506 86.26430181-8.18584637z" data-name="Trazado 238"/></g><g data-name="Grupo 265"><path fill="gray" d="M429.37042117 744.9390373l-.24587942.15812436-89.37105955-148.84721587.25980762-.15z" data-name="Trazado 239"/></g><g data-name="Grupo 266"><path fill="gray" d="M429.39373463 745.02141741l-.29164032-.00713586-3.09456158-157.02393788.2912025-.00762247z" data-name="Trazado 240"/></g><g data-name="Grupo 267"><path fill="gray" d="M429.19635264 745.15154177l-102.90853075-37.5748038.10781982-.2712506 102.91362882 37.57763393z" data-name="Trazado 241"/></g><g data-name="Grupo 268"><path fill="gray" d="M461.43375672 873.25436355l-.28181724.08187822-32.04146953-128.27945318.28181724-.08187822z" data-name="Trazado 242"/></g><g data-name="Grupo 269"><path fill="gray" d="M382.6028227 860.63518062l-.2747506-.113882 46.77467284-115.55589014.28081278.110382z" data-name="Trazado 243"/></g><g data-name="Grupo 271"><path fill="gray" d="M461.2670087 873.4395475l-78.83463274-12.72558931.05181277-.28625764 78.8194725 12.71933098z" data-name="Trazado 245"/></g><g data-name="Grupo 272"><path fill="gray" d="M461.36095099 873.42226031l-133.82960337 74.87632742-.13993782-.25637942 133.8309694-74.87596139z" data-name="Trazado 246"/></g><g data-name="Grupo 273"><path fill="gray" d="M382.60429643 860.65973318l-55.03216571 87.54750094-.24461939-.1537672 55.03216571-87.54750095z" data-name="Rectángulo 40"/></g><g data-name="Grupo 274"><path fill="gray" d="M382.4281798 860.71869024l-100.49051335-27.1986748.07563329-.28499931 100.49137937 27.1981748z" data-name="Trazado 247"/></g><g data-name="Grupo 275"><path fill="gray" d="M382.3764311 860.68505884l-105.64222956-91.68770902.17776468-.21810254 105.65065776 91.6863071z" data-name="Trazado 248"/></g><g data-name="Grupo 276"><path fill="gray" d="M382.60318615 860.52181013l-.27481724.09400258-56.1229656-153.13582791.26788903-.09000258z" data-name="Trazado 249"/></g><g data-name="Grupo 277"><path fill="gray" d="M429.26411801 745.16091483l-152.42296457 23.87168113-.03637118-.28499673 152.41213444-23.88043946z" data-name="Trazado 250"/></g><g data-name="Grupo 278"><path fill="gray" d="M429.32134748 745.14403919L282.0507331 833.5078526l-.146-.25287942 147.27061438-88.36381342z" data-name="Trazado 251"/></g><g data-name="Grupo 279"><path fill="gray" d="M282.12304845 833.36910647l-.29199673.02424683-5.88148158-65.64502492.29026468-.02324683z" data-name="Trazado 252"/></g><g data-name="Grupo 280"><path fill="gray" d="M339.79397258 596.29007719l-95.04911532-72.25589696.17132685-.24325318 95.05611533 72.26802132z" data-name="Trazado 253"/></g><g data-name="Grupo 281"><path fill="gray" d="M228.40419662 692.44532577l-.2005596-.22137942 111.58909835-96.15601207.18749743.21275507z" data-name="Trazado 254"/></g><g data-name="Grupo 282"><path fill="gray" d="M326.49047183 707.45973798l-.29574802-.0382506 13.5469353-111.26401978.287882.02662625z" data-name="Trazado 255"/></g><g data-name="Grupo 283"><path fill="gray" d="M326.3221065 707.58812066l-98.04466306-15.11233783.05831278-.2749993 98.02510088 15.09245514z" data-name="Trazado 256"/></g><g data-name="Grupo 284"><path fill="gray" d="M276.9320861 768.98009596l-.22343266-.17699673 49.51962997-61.44948492.21910254.17949673z" data-name="Trazado 257"/></g><g data-name="Grupo 285"><path fill="gray" d="M326.40415648 707.5742354l-123.6769951 59.53116077-.12867948-.26287942L326.276343 707.31085598z" data-name="Trazado 258"/></g><g data-name="Grupo 286"><path fill="gray" d="M276.82383293 769.04259596l-74.16573114-1.93081453.01363586-.280382 74.16429332 1.91432415z" data-name="Trazado 259"/></g><g data-name="Grupo 287"><path fill="gray" d="M276.9469566 768.8098524l-.24587942.15812436-48.52189911-76.55439454.24637942-.15725833z" data-name="Trazado 260"/></g><g data-name="Grupo 289"><path fill="gray" d="M228.42632544 692.26165401l-.25287942.146-36.60587206-65.60323025.25287942-.146z" data-name="Trazado 262"/></g><g data-name="Grupo 290"><path fill="gray" d="M228.44530878 692.34653412l-.287882-.02662624 16.52255483-168.42609556.294382.03788457z" data-name="Trazado 263"/></g><g data-name="Grupo 291"><path fill="gray" d="M191.82889378 626.79904296l-.25836791-.13950635 53.1239006-102.80870505.25569804.124882z" data-name="Trazado 264"/></g><g data-name="Grupo 292"><path fill="gray" d="M191.89077389 626.74022245l-6.1909369 97.68037875-.30051815-.0190467 6.1909369-97.68037875z" data-name="Rectángulo 41"/></g><g data-name="Grupo 293"><path fill="gray" d="M191.63245665 626.86280386l-86.45900615-44.87339142.13864032-.2578679 86.4617382 44.87412346z" data-name="Trazado 265"/></g><g data-name="Grupo 294"><path fill="gray" d="M185.70198419 724.48492425l-.18150704-.23237941 42.7033464-32.03563438.17544486.23587941z" data-name="Trazado 266"/></g><g data-name="Grupo 295"><path fill="gray" d="M185.77312005 724.30413518l17.03282863 42.62655059-.27401522.10949172-17.03282863-42.6265506z" data-name="Rectángulo 42"/></g><g data-name="Grupo 296"><path fill="gray" d="M161.62568093 811.99754375l-.21174614-.19875507 41.13468366-44.92863795.22480831.20737942z" data-name="Trazado 267"/></g><g data-name="Grupo 297"><path fill="gray" d="M202.57127424 767.0833917l-67.59961374-59.94996555.19182686-.20774614 67.59667592 59.9308771z" data-name="Trazado 268"/></g><g data-name="Grupo 298"><path fill="gray" d="M185.50092013 724.45667108l-80.95665954-96.32704753.21181724-.20312178 80.96915954 96.34869817z" data-name="Trazado 269"/></g><g data-name="Grupo 299"><path fill="gray" d="M185.66452455 724.23404226l-.0950868.27714166-50.54761262-17.34279266.0950868-.27714167z" data-name="Rectángulo 43"/></g><g data-name="Grupo 300"><path fill="gray" d="M185.53534833 724.50030248L13.82532079 621.8278106l.1661307-.24025318L185.688247 724.24113072z" data-name="Trazado 270"/></g><g data-name="Grupo 301"><path fill="gray" d="M104.79252527 628.0336306l-.29264033-.00886792.58819953-46.18120853.29164033.00713586z" data-name="Trazado 271"/></g><g data-name="Grupo 302"><path fill="gray" d="M104.63289199 628.17313763l-90.73367186-6.3233296.02662625-.287882 90.73230582 6.32296358z" data-name="Trazado 272"/></g><g data-name="Grupo 303"><path fill="gray" d="M119.32217285 697.63571841l-.28088904.06748592-14.53952322-69.64719294.28988904-.05189746z" data-name="Trazado 273"/></g><g data-name="Grupo 304"><path fill="gray" d="M134.99035666 707.15380883l-15.88281452-9.3618417.14614033-.24487754 15.88837669 9.35747568z" data-name="Trazado 274"/></g><g data-name="Grupo 305"><path fill="gray" d="M119.2399748 697.81134723l-40.85214077 17.79401658-.12261731-.26637942 40.85720295-17.79924862z" data-name="Trazado 275"/></g><g data-name="Grupo 306"><path fill="gray" d="M119.09534599 697.78284277L13.8296509 621.82531061l.16526469-.23975318 105.27269507 75.96965652z" data-name="Trazado 276"/></g><g data-name="Grupo 307"><path fill="gray" d="M121.546937 799.10112294l-.25937943.13474167-43.09560107-83.69177064.25937942-.13474167z" data-name="Trazado 277"/></g><g data-name="Grupo 308"><path fill="gray" d="M78.19709047 715.55498628L13.79002656 621.7846792l.2455134-.15675833 64.41312608 93.76680707z" data-name="Trazado 278"/></g><g data-name="Grupo 309"><path fill="gray" d="M161.41046623 811.99478095L78.2109565 715.57700294l.2170134-.20612178 83.20094754 96.4342684z" data-name="Trazado 279"/></g><g data-name="Grupo 310"><path fill="gray" d="M161.47181302 812.0390367l-40.1076766-12.73653365.08619545-.28070508 40.10854263 12.73603365z" data-name="Trazado 280"/></g><g data-name="Grupo 311"><path fill="gray" d="M159.00771696 884.29909715l-.26731724.10699296-37.46070817-85.18184985.26118326-.11961732z" data-name="Trazado 281"/></g><g data-name="Grupo 312"><path fill="gray" d="M244.77861499 978.37665034L121.29355757 799.24625692l.23937942-.16938269 123.4841914 179.13089342z" data-name="Trazado 282"/></g><g data-name="Grupo 313"><path fill="gray" d="M254.98506328 1035.71073735l-.23837941.17111474-95.99528415-151.45670942.24587942-.15812436z" data-name="Trazado 283"/></g><g data-name="Grupo 314"><path fill="gray" d="M232.06331567 902.60710588l-73.22454288-18.11462862.07613329-.28413328 73.21654287 18.1007722z" data-name="Trazado 284"/></g><g data-name="Grupo 315"><path fill="gray" d="M296.51684276 988.64988953L158.77859588 884.46024779l.17399673-.22862882L296.69949974 988.4162607z" data-name="Trazado 285"/></g><g data-name="Grupo 316"><path fill="gray" d="M255.0160011 1035.77832323l-.28988903.05189746-9.9764349-57.51769213.29625506-.04287118z" data-name="Trazado 286"/></g><g data-name="Grupo 317"><path fill="gray" d="M296.5803498 988.67788695l-51.70460341-10.2430001.05131277-.28712366 51.70560341 10.24473215z" data-name="Trazado 287"/></g><g data-name="Grupo 318"><path fill="gray" d="M245.04383415 978.2720234l-.29625506.04287119-12.79807431-75.83491496.29625506-.04287118z" data-name="Trazado 288"/></g><g data-name="Grupo 319"><path fill="gray" d="M269.1376461 942.38172985l-37.14614132-39.82900408.21231724-.20225575 37.15560542 39.83739638z" data-name="Trazado 289"/></g><g data-name="Grupo 320"><path fill="gray" d="M232.24575984 902.43710845l-.29625506.04287118-10.02608177-58.165683.28469289-.04889747z" data-name="Trazado 290"/></g><g data-name="Grupo 321"><path fill="gray" d="M382.50893556 860.7205633l-150.37136414 41.87715731-.07281605-.28012108 150.35930196-41.88404962z" data-name="Trazado 291"/></g><g data-name="Grupo 322"><path fill="gray" d="M298.11906155 987.74101388l-.23562882-.18612108 29.4537835-39.48255051.240691.18088903z" data-name="Trazado 292"/></g><g data-name="Grupo 323"><path fill="gray" d="M327.4441015 948.315473l-58.21195798-5.88206882.02662624-.287882 58.21195797 5.88206882z" data-name="Trazado 293"/></g><g data-name="Grupo 324"><path fill="gray" d="M327.35410407 948.27159288L221.96512878 844.40453314l.20395122-.21474614 105.3973413 103.87955013z" data-name="Trazado 294"/></g><g data-name="Grupo 325"><path fill="gray" d="M245.01828417 978.38376954l-.24025317-.1661307 24.34583495-36.0057769.23988715.16749673z" data-name="Trazado 295"/></g><g data-name="Grupo 326"><path fill="gray" d="M268.86871601 942.23792927l-12.38692565 95.14001956-.29253104-.0380866 12.38692565-95.14001957z" data-name="Rectángulo 44"/></g><g data-name="Grupo 327"><path fill="gray" d="M269.33164799 942.41175097l-.16332051-.24287942 113.21142858-81.71205369.16938269.23937942z" data-name="Trazado 296"/></g><g data-name="Grupo 328"><path fill="gray" d="M222.14563067 844.41117157l-63.19982713 40.05068837-.15812436-.24587941 63.20329124-40.05268837z" data-name="Trazado 297"/></g><g data-name="Grupo 329"><path fill="gray" d="M224.24377169 847.96525842l-62.80091316-35.93837235.1522025-.24837753 62.797717 35.94483645z" data-name="Trazado 298"/></g><g data-name="Grupo 330"><path fill="gray" d="M282.00223567 833.5358526l-59.90460242 10.904185-.05189746-.28988904 59.90906653-10.90445294z" data-name="Trazado 299"/></g></g><g fill="#333" data-name="Grupo 332"><path d="M108.19188264 625.78349027a4.2 4.2 0 11-5.79629897-1.3034843 4.2 4.2 0 015.79629897 1.3034843z" data-name="Trazado 300"/><path d="M195.25484665 624.47696739a4.2 4.2 0 11-5.80842332-1.2964843 4.2 4.2 0 015.80842332 1.2964843z" data-name="Trazado 301"/><path d="M122.73783406 695.42581718a4.208 4.208 0 11-5.80842332-1.2964843 4.187 4.187 0 015.80842332 1.2964843z" data-name="Trazado 302"/><path d="M138.61761268 704.77440056a4.208 4.208 0 11-5.78929896-1.29135995 4.181 4.181 0 015.78929896 1.29135995z" data-name="Trazado 303"/><path d="M206.21595847 764.71816997a4.208 4.208 0 11-5.80792332-1.29561828 4.222 4.222 0 015.80792332 1.29561828z" data-name="Trazado 304"/><path d="M231.85655845 690.09299187a4.2 4.2 0 11-5.80329897-1.31560866 4.22 4.22 0 015.80329897 1.31560866z" data-name="Trazado 305"/><path d="M280.3727255 766.64145821a4.2 4.2 0 11-5.79629895-1.3034843 4.19 4.19 0 015.79629896 1.3034843z" data-name="Trazado 306"/><path d="M189.16347038 722.1203942a4.2 4.2 0 11-5.80842332-1.2964843 4.212 4.212 0 015.80842332 1.2964843z" data-name="Trazado 307"/><path d="M235.64645695 900.20928864a4.2 4.2 0 11-5.79579896-1.30261828 4.2 4.2 0 015.79579896 1.30261828z" data-name="Trazado 308"/><path d="M331.00702035 945.91662947a4.2 4.2 0 11-5.79629897-1.3034843 4.211 4.211 0 015.79629897 1.3034843z" data-name="Trazado 309"/><path d="M386.01495506 858.32916723a4.2 4.2 0 11-5.79629896-1.3034843 4.19 4.19 0 015.79629896 1.3034843z" data-name="Trazado 310"/><path d="M285.53073594 831.12339435a4.208 4.208 0 11-5.79629896-1.3034843 4.221 4.221 0 015.79629896 1.3034843z" data-name="Trazado 311"/><path d="M300.15352698 986.27081138a4.2 4.2 0 11-5.78879896-1.29049392 4.2 4.2 0 015.78879896 1.29049392z" data-name="Trazado 312"/><path d="M165.07161456 809.65007587a4.208 4.208 0 11-5.80792332-1.29561827 4.232 4.232 0 015.80792332 1.29561827z" data-name="Trazado 313"/><path d="M432.79195803 742.76731298a4.2 4.2 0 11-5.79629897-1.3034843 4.212 4.212 0 015.79629897 1.3034843z" data-name="Trazado 314"/><path d="M464.84272179 871.04486424a4.2 4.2 0 11-5.78879897-1.29049392 4.191 4.191 0 015.78879897 1.29049392z" data-name="Trazado 315"/><path d="M343.44152283 593.92781955a4.208 4.208 0 11-5.80792332-1.29561828 4.209 4.209 0 015.80792332 1.29561828z" data-name="Trazado 316"/><path d="M429.6940926 585.72565267a4.2 4.2 0 11-5.78929896-1.29135995 4.211 4.211 0 015.78929896 1.29135995z" data-name="Trazado 317"/><path d="M248.38713956 521.65879823a4.208 4.208 0 11-5.80928935-1.2959843 4.22 4.22 0 015.80928935 1.2959843z" data-name="Trazado 318"/><path d="M329.88419523 705.19783932a4.2 4.2 0 11-5.79629897-1.3034843 4.188 4.188 0 015.79629897 1.3034843z" data-name="Trazado 319"/><path d="M108.79327832 579.61313814a4.2 4.2 0 11-5.79629896-1.3034843 4.19 4.19 0 015.79629896 1.3034843z" data-name="Trazado 320"/><path d="M17.46454091 619.46112476a4.2 4.2 0 11-5.80329896-1.31560865 4.2 4.2 0 015.80329896 1.31560865z" data-name="Trazado 321"/><path d="M81.86747085 713.22227158a4.2 4.2 0 11-5.79579896-1.30261828 4.219 4.219 0 015.79579896 1.30261828z" data-name="Trazado 322"/><path d="M124.9667059 796.92233645a4.2 4.2 0 11-5.79629896-1.3034843 4.209 4.209 0 015.79629896 1.3034843z" data-name="Trazado 323"/><path d="M162.42684228 882.08719592a4.208 4.208 0 11-5.80142332-1.28435995 4.223 4.223 0 015.80142332 1.28435995z" data-name="Trazado 324"/><path d="M225.60834891 842.0447755a4.2 4.2 0 11-5.78879896-1.29049392 4.2 4.2 0 015.78879896 1.29049392z" data-name="Trazado 325"/><path d="M272.80475853 940.0393549a4.208 4.208 0 11-5.80928934-1.2959843 4.2 4.2 0 015.80928934 1.2959843z" data-name="Trazado 326"/><path d="M248.44066524 976.03950744a4.185 4.185 0 01-1.2964843 5.80842332 4.2006831 4.2006831 0 11-4.4806903-7.10678327 4.185 4.185 0 015.7771746 1.29835995z" data-name="Trazado 327"/><path d="M258.41410014 1033.55200341a4.2 4.2 0 11-5.79629896-1.3034843 4.212 4.212 0 015.79629896 1.3034843z" data-name="Trazado 328"/></g></g><g data-name="Grupo 403"><g data-name="Grupo 401" opacity=".81"><g data-name="Grupo 334"><path fill="gray" d="M739.5601061 631.0453316l-76.99845895 7.31875699-.02700515-.2707743 77.00359293-7.30786469z" data-name="Trazado 329"/></g><g data-name="Grupo 335"><path fill="gray" d="M742.4271593 771.0152134l-.2186666.14125833-79.76419938-132.85164594.21916661-.1403923z" data-name="Trazado 330"/></g><g data-name="Grupo 336"><path fill="gray" d="M742.44770482 771.08879928l-.26681982-.00414548-2.75541029-140.16251062.25475764-.00274682z" data-name="Trazado 331"/></g><g data-name="Grupo 337"><path fill="gray" d="M742.26664333 771.20719158l-91.85347677-33.54088862.09270508-.23943009 91.85347677 33.54088862z" data-name="Trazado 332"/></g><g data-name="Grupo 338"><path fill="gray" d="M771.04492213 885.54663263l-.25147045.0724404-28.60345898-114.49464424.2522743-.0590481z" data-name="Trazado 333"/></g><g data-name="Grupo 339"><path fill="gray" d="M700.67669103 874.2872811l-.2449301-.10223135 41.75747086-103.1479389.24493009.10223137z" data-name="Trazado 334"/></g><g data-name="Grupo 341"><path fill="gray" d="M770.89449462 885.72008453l-70.36523368-11.36615983.03943009-.25370508 70.37142983 11.36489188z" data-name="Trazado 336"/></g><g data-name="Grupo 342"><path fill="gray" d="M770.9874728 885.70912747L651.52494183 952.5319542l-.13-.2251666 119.45603099-66.83408506z" data-name="Trazado 337"/></g><g data-name="Grupo 343"><path fill="gray" d="M700.64147821 874.29029073l-49.07474687 78.22357305-.22538177-.14139668 49.07474687-78.22357305z" data-name="Rectángulo 45"/></g><g data-name="Grupo 344"><path fill="gray" d="M700.52136863 874.36425483l-89.69703701-24.2758254.06338457-.2502147 89.70642932 24.26809335z" data-name="Trazado 338"/></g><g data-name="Grupo 345"><path fill="gray" d="M700.47558402 874.33295356L606.179111 792.4926713l.16471212-.19671023 94.29437495 81.84264828z" data-name="Trazado 339"/></g><g data-name="Grupo 346"><path fill="gray" d="M700.6769923 874.18780292l-.23847046.09495706-50.10170207-136.68669353.23933648-.09545706z" data-name="Trazado 340"/></g><g data-name="Grupo 347"><path fill="gray" d="M742.33414075 771.21210055l-136.0553099 21.3072906-.03609361-.25051596 136.05344388-21.30852266z" data-name="Trazado 341"/></g><g data-name="Grupo 348"><path fill="gray" d="M742.38120997 771.19762683L610.92733608 850.0728384l-.13519615-.2221666 131.45907004-78.87821158z" data-name="Trazado 342"/></g><g data-name="Grupo 349"><path fill="gray" d="M610.99375913 849.9478865l-.26644417.02450515-5.24380908-58.59654375.25431981-.01750516z" data-name="Trazado 343"/></g><g data-name="Grupo 350"><path fill="gray" d="M662.4718196 638.3305027l-84.84832547-64.49561065.16044417-.20810254 84.84536138 64.49847668z" data-name="Trazado 344"/></g><g data-name="Grupo 351"><path fill="gray" d="M563.03509765 724.16904815l-.16723909-.2036666 99.59576936-85.83106726.16643524.1902743z" data-name="Trazado 345"/></g><g data-name="Grupo 352"><path fill="gray" d="M650.59020177 737.56293694l-.26842752-.0309301 12.10659791-99.3207573.25370508.03943008z" data-name="Trazado 346"/></g><g data-name="Grupo 353"><path fill="gray" d="M650.43865694 737.6804536l-87.50439388-13.48205609.0339301-.26323136 87.50352784 13.48255609z" data-name="Trazado 347"/></g><g data-name="Grupo 354"><path fill="gray" d="M606.36023724 792.47239116l-.19890639-.15651597 44.19786903-54.84704526.19804036.15701597z" data-name="Trazado 348"/></g><g data-name="Grupo 355"><path fill="gray" d="M650.51820692 737.6622382l-110.3991178 53.14111885-.1092154-.2371666 110.38909153-53.13648487z" data-name="Trazado 349"/></g><g data-name="Grupo 356"><path fill="gray" d="M606.25254624 792.52186488l-66.18745455-1.70003411.00577945-.26198969 66.19395455 1.71129244z" data-name="Trazado 350"/></g><g data-name="Grupo 357"><path fill="gray" d="M606.37667557 791.37286318l-.21866661.14125833-43.31481908-68.32546737.22522879-.1438923z" data-name="Trazado 351"/></g><g data-name="Grupo 359"><path fill="gray" d="M563.0635925 723.99440267l-.2251666.13-32.67492909-58.5566373.2316666-.11874167z" data-name="Trazado 353"/></g><g data-name="Grupo 360"><path fill="gray" d="M563.08117391 724.07085457l-.2619275-.01967175 14.75264002-150.32967792.26242752.02053779z" data-name="Trazado 354"/></g><g data-name="Grupo 361"><path fill="gray" d="M577.78308447 573.76931063l-47.34659174 91.74894354-.23091997-.11916512 47.34659175-91.74894353z" data-name="Rectángulo 46"/></g><g data-name="Grupo 362"><path fill="gray" d="M524.9832345 752.66928783l-.26675765-.01803778 5.43680457-87.14917825.25642752.01014548z" data-name="Trazado 355"/></g><g data-name="Grupo 363"><path fill="gray" d="M530.22178142 665.62071728l-77.17961325-40.05101147.12462367-.23014548 77.17961325 40.05101147z" data-name="Trazado 356"/></g><g data-name="Grupo 364"><path fill="gray" d="M524.922864 752.76072308l-.15598076-.2101666 38.1105016-28.59067493.15684679.2096666z" data-name="Trazado 357"/></g><g data-name="Grupo 365"><path fill="gray" d="M540.18743074 790.63572823l-.2441666.09709103-15.21737574-38.02926794.2501666-.08669873z" data-name="Trazado 358"/></g><g data-name="Grupo 366"><path fill="gray" d="M503.44533922 830.88055894l-.19414806-.1742743 36.72261334-40.10656792.1894519.17814033z" data-name="Trazado 359"/></g><g data-name="Grupo 367"><path fill="gray" d="M539.97772824 790.78451284l-60.3396478-53.5113357.1777743-.18808587 60.3336478 53.50094338z" data-name="Trazado 360"/></g><g data-name="Grupo 368"><path fill="gray" d="M524.74302237 752.73522823l-72.27759791-85.98847183.2066666-.16204294 72.27759791 85.98847183z" data-name="Trazado 361"/></g><g data-name="Grupo 369"><path fill="gray" d="M524.89061014 752.53685774l-.08501459.24784642-45.12507548-15.47849543.08501458-.24784642z" data-name="Rectángulo 47"/></g><g data-name="Grupo 371"><path fill="gray" d="M452.7029667 666.66619164l-.26112366-.00627945.53069116-41.21281596.25995379-.00574682z" data-name="Trazado 363"/></g><g data-name="Grupo 373"><path fill="gray" d="M465.67728102 728.79236324l-.25747045.0620481-12.97809189-62.16671454.2582743-.0486558z" data-name="Trazado 365"/></g><g data-name="Grupo 374"><path fill="gray" d="M479.66437467 737.30072009l-14.17730577-8.35581391.13118584-.23277946 14.1692436 8.3558498z" data-name="Trazado 366"/></g><g data-name="Grupo 375"><path fill="gray" d="M465.60467144 728.94859975l-36.46988613 15.88630427-.1102154-.23889866 36.47644832-15.88893824z" data-name="Trazado 367"/></g><g data-name="Grupo 377"><path fill="gray" d="M429.21791155 744.6448829l38.41724062 74.72940718-.2321231.11933092-38.41724062-74.72940719z" data-name="Rectángulo 48"/></g><g data-name="Grupo 379"><path fill="gray" d="M503.24428477 830.88232242l-74.26342251-86.07402094.18947045-.17982755 74.26942252 86.08441325z" data-name="Trazado 370"/></g><g data-name="Grupo 380"><path fill="gray" d="M503.30349759 830.92088202l-35.7959331-11.37037483.07377688-.2562147 35.80662925 11.37690111z" data-name="Trazado 371"/></g><g data-name="Grupo 381"><path fill="gray" d="M501.10123005 895.40644275l-.2436666.09795706-33.43630985-76.03338746.2441666-.09709104z" data-name="Trazado 372"/></g><g data-name="Grupo 382"><path fill="gray" d="M577.66027172 979.3825927L467.43938758 819.5044213l.2126666-.15165063 110.22688414 159.88856369z" data-name="Trazado 373"/></g><g data-name="Grupo 383"><path fill="gray" d="M586.77365797 1030.57544071l-.21953263.14175833-85.68492792-135.1906486.2191666-.1403923z" data-name="Trazado 374"/></g><g data-name="Grupo 384"><path fill="gray" d="M566.31408718 911.7484246l-65.36674875-16.16652994.06944675-.2537147 65.35418657 16.15877162z" data-name="Trazado 375"/></g><g data-name="Grupo 385"><path fill="gray" d="M623.84686524 988.5621193L500.9032237 895.5634857l.14751597-.21449485 122.94970372 92.99513361z" data-name="Trazado 376"/></g><g data-name="Grupo 386"><path fill="gray" d="M586.79346181 1030.62174198l-.25171212.04602182-8.90311195-51.32464225.25864033-.05002181z" data-name="Trazado 377"/></g><g data-name="Grupo 387"><path fill="gray" d="M623.88874792 988.58066225l-46.15429929-9.14159137.04376022-.25620508 46.1542993 9.14159137z" data-name="Trazado 378"/></g><g data-name="Grupo 388"><path fill="gray" d="M577.89441204 979.29013564l-.25257815.04652181-11.43119158-67.6994046.2647743-.03739746z" data-name="Trazado 379"/></g><g data-name="Grupo 389"><path fill="gray" d="M599.40353203 947.26502428l-33.1564519-35.55065927.18247046-.19195191 33.16814804 35.5589176z" data-name="Trazado 380"/></g><g data-name="Grupo 390"><path fill="gray" d="M566.47355059 911.59862334l-.26397045.05078976-8.95677548-51.9275902.2577743-.0495218z" data-name="Trazado 381"/></g><g data-name="Grupo 391"><path fill="gray" d="M700.59219618 874.36493174L566.37148652 911.7418432l-.06461027-.24790827 134.21803979-37.3915358z" data-name="Trazado 382"/></g><g data-name="Grupo 392"><path fill="gray" d="M625.26541485 987.7431193l-.21060254-.1647743 26.29676606-35.2326651.20843267.15101597z" data-name="Trazado 383"/></g><g data-name="Grupo 393"><path fill="gray" d="M651.44798991 952.54866959l-51.95846046-5.2466934.02353779-.25723136 51.95759443 5.2471934z" data-name="Trazado 384"/></g><g data-name="Grupo 394"><path fill="gray" d="M651.36718864 952.50871768l-94.07138398-92.71241659.1777743-.18808588 94.07825 92.7223089z" data-name="Trazado 385"/></g><g data-name="Grupo 395"><path fill="gray" d="M577.87821847 979.38608754l-.21499485-.148382 21.73176031-32.137487.21449485.14751598z" data-name="Trazado 386"/></g><g data-name="Grupo 396"><path fill="gray" d="M587.62983488 1031.98638263l-.25370508-.03943009 11.99355286-84.79055708.26323136.0339301z" data-name="Trazado 387"/></g><g data-name="Grupo 397"><path fill="gray" d="M599.57650764 947.28062682l-.15598077-.2101666 101.05898982-72.94069508.1507846.2131666z" data-name="Trazado 388"/></g><g data-name="Grupo 398"><path fill="gray" d="M557.45528989 859.8185376l-56.4099111 35.74716795-.14125832-.21866661L557.3157636 859.598871z" data-name="Trazado 389"/></g><g data-name="Grupo 399"><path fill="gray" d="M559.33156488 862.99034122l-56.05232562-32.08547586.12512366-.22927945 56.05182563 32.08460983z" data-name="Trazado 390"/></g><g data-name="Grupo 400"><path fill="gray" d="M610.88726686 850.09943647l-53.47618016 9.73653896-.04828977-.25964032 53.47531414-9.73603896z" data-name="Trazado 391"/></g></g></g><g data-name="Grupo 683" opacity=".71"><g data-name="Grupo 681"><g data-name="Grupo 614"><path fill="gray" d="M548.7540209 338.75949762l-60.45464896-68.89252355.22680762-.20715767 60.45878293 68.9016838z" data-name="Trazado 685"/></g><g data-name="Grupo 615"><path fill="gray" d="M416.2788138 438.6337082l-.2832147-.12054225 72.27190424-168.81138992.29327687.12397046z" data-name="Trazado 686"/></g><g data-name="Grupo 616"><path fill="gray" d="M416.23122793 438.69928704l-.18554294-.2473698 132.73461536-99.91890227.18207884.2493698z" data-name="Trazado 687"/></g><g data-name="Grupo 617"><path fill="gray" d="M415.98973566 438.61701016L384.4685866 327.10477848l.30080762-.07898592L416.28864136 438.52873z" data-name="Trazado 688"/></g><g data-name="Grupo 618"><path fill="gray" d="M416.28493112 438.6983037l-90.19452878 106.87829282-.2407341-.20315535 90.1945288-106.87829283z" data-name="Rectángulo 73"/></g><g data-name="Grupo 619"><path fill="gray" d="M288.11887144 470.18817653l-.07898591-.30080762 128.06199303-31.46212155.07552182.30280763z" data-name="Trazado 689"/></g><g data-name="Grupo 621"><path fill="gray" d="M325.85918225 545.57031234l-37.92040373-75.4640659.28216403-.14327757 37.91297552 75.46719987z" data-name="Trazado 691"/></g><g data-name="Grupo 622"><path fill="gray" d="M325.93096686 545.64664693l-147.09313943-68.38879094.13397045-.27595637 147.09656763 68.37872876z" data-name="Trazado 692"/></g><g data-name="Grupo 623"><path fill="gray" d="M178.91569088 477.27871944l-.01862247-.31025506 109.1736639-7.08966727.01912247.3111211z" data-name="Trazado 693"/></g><g data-name="Grupo 624"><path fill="gray" d="M249.30426653 366.97330875l38.9146309 103.00633013-.2871889.10849673-38.91463089-103.00633013z" data-name="Rectángulo 74"/></g><g data-name="Grupo 625"><path fill="gray" d="M287.92662531 470.02319646l13.18126186-147.36938475.30997045.02888458-13.18326186 147.36592064z" data-name="Trazado 694"/></g><g data-name="Grupo 626"><path fill="gray" d="M288.21109834 470.1199182l-.26420766-.16962109 96.54754013-142.97475515.25641343.17412109z" data-name="Trazado 695"/></g><g data-name="Grupo 627"><path fill="gray" d="M416.02969976 438.67823001L301.15693269 322.77676104l.21880762-.22101408 114.87440105 115.9062991z" data-name="Trazado 696"/></g><g data-name="Grupo 628"><path fill="gray" d="M416.07802027 438.72192359L249.0929134 367.16923438l.12650635-.28088457 166.98060687 71.54489498z" data-name="Trazado 697"/></g><g data-name="Grupo 629"><path fill="gray" d="M249.26064733 367.14975808l-.20882755-.23969992 52.64957287-45.7062648.19589934.23330761z" data-name="Trazado 698"/></g><g data-name="Grupo 630"><path fill="gray" d="M488.2639245 269.7615773l3.07947157-126.26619878.31132686-.00076606-3.08553375 126.26969878z" data-name="Trazado 699"/></g><g data-name="Grupo 631"><path fill="gray" d="M336.81836545 233.79817445l.0699993-.29675764 151.56084367 36.11508166-.07396341.29789161z" data-name="Trazado 700"/></g><g data-name="Grupo 632"><path fill="gray" d="M384.68989233 327.19409125l-.1430718-.26380762 103.7990174-57.2968281.1430718.26380762z" data-name="Trazado 701"/></g><g data-name="Grupo 633"><path fill="gray" d="M336.99116603 233.57947384l47.7687767 93.41269023-.27422472.14023126-47.7687767-93.41269024z" data-name="Rectángulo 75"/></g><g data-name="Grupo 634"><path fill="gray" d="M301.25422434 322.81527513l.01849227-.30397046 83.35611801 4.39703152-.01795637.31289865z" data-name="Trazado 702"/></g><g data-name="Grupo 635"><path fill="gray" d="M384.54777313 327.19993357L256.8993495 258.02437831l.14576468-.27352816 127.64805762 69.17692128z" data-name="Trazado 703"/></g><g data-name="Grupo 636"><path fill="gray" d="M301.13696859 322.7501822l-44.29559987-64.76622951.256298-.18607884 44.29284154 64.78745195z" data-name="Trazado 704"/></g><g data-name="Grupo 637"><path fill="gray" d="M301.40947494 322.72217705l-.2901429-.11654225 35.59029174-89.02180644.28234867.12104224z" data-name="Trazado 705"/></g><g data-name="Grupo 639"><path fill="gray" d="M336.99350835 233.71553086l-.27942047-.13197045 33.57809353-72.02103598.27942047.13197045z" data-name="Trazado 707"/></g><g data-name="Grupo 640"><path fill="gray" d="M336.9284321 233.78081547l-.1555-.2693339 154.64604727-90.14518893.1555.2693339z" data-name="Trazado 708"/></g><g data-name="Grupo 641"><path fill="gray" d="M370.45179615 161.78098526l-.04340708-.30518327 121.06345375-18.13194717.05083528.30204929z" data-name="Trazado 709"/></g><g data-name="Grupo 642"><path fill="gray" d="M370.5735519 161.8538724l-87.55634168 55.0910177-.1661116-.26400173 87.55634169-55.09101769z" data-name="Rectángulo 76"/></g><g data-name="Grupo 643"><path fill="gray" d="M370.28278207 161.65224428L355.20334102 59.72188624l.3055493-.0447731 15.08057501 101.93432214z" data-name="Trazado 710"/></g><g data-name="Grupo 644"><path fill="gray" d="M282.8971021 217.03380673l.09181982-.29896341 53.90427297 16.76493952-.08922175.2974634z" data-name="Trazado 711"/></g><g data-name="Grupo 645"><path fill="gray" d="M257.10118854 257.97597381l-.26370766-.16875506 25.97609237-41.00808825.26630573.16725507z" data-name="Trazado 712"/></g><g data-name="Grupo 646"><path fill="gray" d="M192.95154892 250.5995387l.03234868-.31197045 64.0088076 7.4485069-.0406788.30754226z" data-name="Trazado 713"/></g><g data-name="Grupo 647"><path fill="gray" d="M256.81991166 257.87278797l9.53321754-95.08798288.30304224.03288458-9.53321753 95.08798287z" data-name="Trazado 714"/></g><g data-name="Grupo 648"><path fill="gray" d="M282.7935662 216.8464773l32.4560479-129.10247605.29875763.07346341-32.45791391 129.101244z" data-name="Trazado 715"/></g><g data-name="Grupo 649"><path fill="gray" d="M282.79505916 216.93106317l-16.43594663-54.08389463.29230763-.09370835 16.43594662 54.08389463z" data-name="Trazado 716"/></g><g data-name="Grupo 650"><path fill="gray" d="M282.7868534 216.89885036L264.47123214 6.08726379l.30712109-.02605067 18.32168342 210.80808657z" data-name="Trazado 717"/></g><g data-name="Grupo 651"><path fill="gray" d="M315.48863522 87.91199798l-.17628461-.2573339 39.95197564-28.08114833.18804294.25169993z" data-name="Trazado 718"/></g><g data-name="Grupo 652"><path fill="gray" d="M315.26514295 87.86089802l-50.7712672-81.70241437.26516402-.17272243 50.77543708 81.7196368z" data-name="Trazado 719"/></g><g data-name="Grupo 653"><path fill="gray" d="M264.80820222 143.49491309l-.23140638-.21280763 50.70701183-55.6028792.23660254.20980762z" data-name="Trazado 720"/></g><g data-name="Grupo 654"><path fill="gray" d="M266.34621061 162.81882175l-1.81082116-19.42043425.30712109-.02605068 1.81515129 19.41793426z" data-name="Trazado 721"/></g><g data-name="Grupo 655"><path fill="gray" d="M264.61185355 143.5228272l-40.56793554-24.0097255.15286276-.26723394 40.57486374 24.0057255z" data-name="Trazado 722"/></g><g data-name="Grupo 656"><path fill="gray" d="M264.5360856 143.38759327l-.0636573-137.31025768.30922878.00159996.0631573 137.30939166z" data-name="Trazado 723"/></g><g data-name="Grupo 657"><path fill="gray" d="M179.17921211 208.22915161l-.26852816-.13710443 45.0681693-88.78964095.27649227.14289866z" data-name="Trazado 724"/></g><g data-name="Grupo 658"><path fill="gray" d="M223.96670262 119.33136072L264.4782392 6.01740035l.29220508.10611404-40.50651029 113.30066614z" data-name="Trazado 725"/></g><g data-name="Grupo 659"><path fill="gray" d="M192.81089829 250.40592466l31.15374215-131.06413574.30481982.06996341L193.112254 250.47788807z" data-name="Trazado 726"/></g><g data-name="Grupo 660"><path fill="gray" d="M192.81845342 250.48701054l-13.91789125-42.2724948.28830762-.10063654 13.92985536 42.28521722z" data-name="Trazado 727"/></g><g data-name="Grupo 661"><path fill="gray" d="M129.33837537 293.11629008l-.25917176-.15289865 49.83627456-84.8810404.26576984.15832686z" data-name="Trazado 728"/></g><g data-name="Grupo 662"><path fill="gray" d="M101.79050692 424.9379823l77.10785652-216.82727486.29220508.10611404-77.1074905 216.82590883z" data-name="Trazado 729"/></g><g data-name="Grupo 663"><path fill="gray" d="M58.94802803 469.21063212l-.29170508-.10524802 70.4112922-176.12606447.2832147.12054225z" data-name="Trazado 730"/></g><g data-name="Grupo 664"><path fill="gray" d="M158.8885518 367.09669702l-29.8247642-74.0020069.2898339-.11999296 29.8273001 74.0143992z" data-name="Trazado 731"/></g><g data-name="Grupo 665"><path fill="gray" d="M125.0225697 475.6650954l4.03227046-182.6299027.30889866.01102816-4.02170828 182.63419693z" data-name="Trazado 732"/></g><g data-name="Grupo 666"><path fill="gray" d="M58.91516458 469.26771096l-.22014806-.21930762 43.13505-44.16790181.22014806.21930762z" data-name="Trazado 733"/></g><g data-name="Grupo 667"><path fill="gray" d="M125.04434727 475.73681525l-23.24464162-50.6829003.27630762-.12142115 23.24410573 50.67397208z" data-name="Trazado 734"/></g><g data-name="Grupo 668"><path fill="gray" d="M159.15092675 367.16114377l-57.1102655 57.9274485-.22075467-.21764048 57.1102655-57.9274485z" data-name="Rectángulo 77"/></g><g data-name="Grupo 669"><path fill="gray" d="M147.73824155 423.53979315l11.14535318-56.52568201.30131982.06390123-11.14102306 56.52318202z" data-name="Trazado 735"/></g><g data-name="Grupo 670"><path fill="gray" d="M159.14482867 367.15658159l-.22447818-.21680762 43.66191137-44.62335114.22197819.2124775z" data-name="Trazado 736"/></g><g data-name="Grupo 671"><path fill="gray" d="M287.97560865 470.1600381L158.93498 367.16111301l.19418326-.23566471 129.05075301 102.98846096z" data-name="Trazado 737"/></g><g data-name="Grupo 672"><path fill="gray" d="M126.79600854 476.46678156l.01102817-.30889866 52.09869195.80558148-.00269804.31332686z" data-name="Trazado 738"/></g><g data-name="Grupo 673"><path fill="gray" d="M178.77431077 477.1998419l-31.01201409-53.55038403.2693339-.1555 31.00801409 53.54345584z" data-name="Trazado 739"/></g><g data-name="Grupo 674"><path fill="gray" d="M202.84379003 322.4414029l-23.78320014 154.70150857-.3054119-.04695283 23.78320013-154.70150856z" data-name="Rectángulo 78"/></g><g data-name="Grupo 675"><path fill="gray" d="M101.94575563 425.15088095l-.01479234-.3136211 45.95495706-1.4196795.01029234.30582685z" data-name="Trazado 740"/></g><g data-name="Grupo 676"><path fill="gray" d="M58.18583225 471.0224703l-.14424167-.2758339 89.77503812-47.31907272.14424167.2758339z" data-name="Trazado 741"/></g><g data-name="Grupo 677"><path fill="gray" d="M288.1771265 469.73307726l-.09625532.29257292-140.28776406-46.15411661.09625533-.29257292z" data-name="Rectángulo 79"/></g><g data-name="Grupo 678"><path fill="gray" d="M202.63744393 322.56400098l-73.48667556-29.37865576.10957814-.29420508 73.48927365 29.37715576z" data-name="Trazado 742"/></g><g data-name="Grupo 679"><path fill="gray" d="M200.89046271 326.56214075l-8.07858108-76.1025129.30658519-.03497887 8.07808108 76.10164687z" data-name="Trazado 743"/></g><g data-name="Grupo 680"><path fill="gray" d="M249.04639674 367.14066516l-46.45943357-44.60409943.21480762-.22794228 46.45946947 44.6121616z" data-name="Trazado 744"/></g></g><g fill="#333" data-name="Grupo 682"><path d="M319.52754483 89.42759463a4.445 4.445 0 11-2.47457903-5.7800966 4.43 4.43 0 012.47457903 5.7800966z" data-name="Trazado 745"/><path d="M374.55972946 163.28213446a4.443 4.443 0 11-2.47857902-5.7870248 4.453 4.453 0 012.47857902 5.7870248z" data-name="Trazado 746"/><path d="M268.82266697 145.03616999a4.448 4.448 0 11-2.48237325-5.7755966 4.444 4.444 0 012.48237325 5.7755966z" data-name="Trazado 747"/><path d="M270.63622018 164.4573363a4.448 4.448 0 11-2.48237325-5.7755966 4.451 4.451 0 012.48237325 5.7755966z" data-name="Trazado 748"/><path d="M261.1017347 259.53912302a4.448 4.448 0 11-2.48237325-5.7755966 4.452 4.452 0 012.48237325 5.7755966z" data-name="Trazado 749"/><path d="M340.98236798 235.3004384a4.448 4.448 0 11-2.47457903-5.7800966 4.438 4.438 0 012.47457903 5.7800966z" data-name="Trazado 750"/><path d="M305.39494226 324.32520894a4.449 4.449 0 11-2.48257902-5.793953 4.456 4.456 0 012.48257902 5.793953z" data-name="Trazado 751"/><path d="M287.07249694 218.53180272a4.448 4.448 0 11-2.48237326-5.7755966 4.438 4.438 0 012.48237326 5.7755966z" data-name="Trazado 752"/><path d="M163.15875751 368.68891029a4.442 4.442 0 11-2.47787325-5.76780237 4.429 4.429 0 012.47787325 5.76780237z" data-name="Trazado 753"/><path d="M183.03634662 478.76790454a4.448 4.448 0 11-2.48237326-5.7755966 4.449 4.449 0 012.48237326 5.7755966z" data-name="Trazado 754"/><path d="M292.2061804 471.6816033a4.448 4.448 0 11-2.48237325-5.7755966 4.444 4.444 0 012.48237325 5.7755966z" data-name="Trazado 755"/><path d="M253.2843345 368.6729887a4.448 4.448 0 11-2.47457902-5.7800966 4.443 4.443 0 012.47457903 5.7800966z" data-name="Trazado 756"/><path d="M129.3159812 477.31550224a4.445 4.445 0 11-2.48237325-5.7755966 4.454 4.454 0 012.48237325 5.7755966z" data-name="Trazado 757"/><path d="M197.09082902 252.09298214a4.445 4.445 0 11-2.47457902-5.7800966 4.445 4.445 0 012.47457902 5.7800966z" data-name="Trazado 758"/><path d="M420.26744138 440.2222138a4.446 4.446 0 11-2.47457902-5.78009659 4.437 4.437 0 012.47457902 5.7800966z" data-name="Trazado 759"/><path d="M330.12265592 547.15486535a4.446 4.446 0 11-2.47457902-5.7800966 4.459 4.459 0 012.47457902 5.7800966z" data-name="Trazado 760"/><path d="M492.53801548 271.41852005a4.446 4.446 0 11-2.47457902-5.7800966 4.428 4.428 0 012.47457902 5.7800966z" data-name="Trazado 761"/><path d="M552.99649457 340.30767757a4.446 4.446 0 11-2.47457903-5.7800966 4.451 4.451 0 012.47457903 5.7800966z" data-name="Trazado 762"/><path d="M495.62128128 145.14089306a4.445 4.445 0 11-2.46765082-5.7840966 4.436 4.436 0 012.46765082 5.7840966z" data-name="Trazado 763"/><path d="M388.74879232 328.71431225a4.443 4.443 0 11-2.47857902-5.7870248 4.453 4.453 0 012.47857902 5.7870248z" data-name="Trazado 764"/><path d="M359.49468072 61.35270463a4.448 4.448 0 11-2.48237325-5.7755966 4.47 4.47 0 012.48237325 5.7755966z" data-name="Trazado 765"/><path d="M268.74867954 7.71802a4.442 4.442 0 11-2.47457902-5.7800966 4.431 4.431 0 012.47457902 5.7800966z" data-name="Trazado 766"/><path d="M228.2484013 121.02548037a4.445 4.445 0 11-2.48637325-5.7825248 4.459 4.459 0 012.48637325 5.7825248z" data-name="Trazado 767"/><path d="M183.17390186 209.81415722a4.448 4.448 0 11-2.47457902-5.7800966 4.437 4.437 0 012.47457902 5.7800966z" data-name="Trazado 768"/><path d="M133.33452922 294.69583159a4.446 4.446 0 11-2.47457902-5.7800966 4.445 4.445 0 012.47457902 5.7800966z" data-name="Trazado 769"/><path d="M206.82053492 324.0633271a4.442 4.442 0 11-2.47457903-5.7800966 4.437 4.437 0 012.47457903 5.7800966z" data-name="Trazado 770"/><path d="M152.02173446 425.2190205a4.446 4.446 0 11-2.47457903-5.78009659 4.445 4.445 0 012.47457903 5.7800966z" data-name="Trazado 771"/><path d="M106.06454535 426.638834a4.446 4.446 0 11-2.47457902-5.7800966 4.445 4.445 0 012.47457902 5.7800966z" data-name="Trazado 772"/><path d="M62.93162932 470.81243196a4.448 4.448 0 11-2.47857902-5.7870248 4.453 4.453 0 012.47857902 5.7870248z" data-name="Trazado 773"/></g></g><path fill="#333" d="M742.99037999 627.54874024a4.2 4.2 0 11-5.79629897-1.3034843 4.209 4.209 0 015.79629897 1.3034843z" data-name="Trazado 774"/><path fill="#333" d="M666.03925613 633.60348403a4.2 4.2 0 11-5.79629896-1.3034843 4.209 4.209 0 015.79629896 1.3034843z" data-name="Trazado 775"/><path fill="#333" d="M567.12575472 720.62027403a4.2 4.2 0 11-5.79629896-1.3034843 4.209 4.209 0 015.79629896 1.3034843z" data-name="Trazado 776"/><path fill="#333" d="M654.4796718 734.84969665a4.2 4.2 0 11-5.79629897-1.3034843 4.209 4.209 0 015.79629897 1.3034843z" data-name="Trazado 777"/><path fill="#333" d="M457.62562067 622.13247841a4.2 4.2 0 11-5.79629897-1.3034843 4.209 4.209 0 015.79629897 1.3034843z" data-name="Trazado 778"/><path fill="#333" d="M528.82445664 746.08447976a4.2 4.2 0 11-5.79629896-1.3034843 4.209 4.209 0 015.79629896 1.3034843z" data-name="Trazado 779"/><path fill="#333" d="M550.2621307 791.55562044a4.2 4.2 0 11-5.79629896-1.3034843 4.209 4.209 0 015.79629897 1.3034843z" data-name="Trazado 780"/><path fill="#333" d="M744.99004502 768.54826168a4.2 4.2 0 11-5.79629896-1.3034843 4.209 4.209 0 015.79629896 1.3034843z" data-name="Trazado 781"/><path fill="#333" d="M532.99072536 662.54866886a4.2 4.2 0 11-5.79629896-1.3034843 4.209 4.209 0 015.79629896 1.3034843z" data-name="Trazado 782"/><path fill="#333" d="M432.99031117 742.5488707a4.2 4.2 0 11-5.79629897-1.3034843 4.209 4.209 0 015.79629897 1.3034843z" data-name="Trazado 783"/><path fill="#333" d="M580.99020395 570.5482045a4.2 4.2 0 11-5.79629897-1.3034843 4.209 4.209 0 015.79629897 1.3034843z" data-name="Trazado 784"/></g></g></g></svg>
